<svg width="108" height="108" viewBox="0 0 108 108" fill="none" xmlns="http://www.w3.org/2000/svg">
<mask id="mask0_2_724" style="mask-type:alpha" maskUnits="userSpaceOnUse" x="0" y="0" width="108" height="108">
<rect width="108" height="108" fill="#D9D9D9"/>
</mask>
<g mask="url(#mask0_2_724)">
<path d="M19.9125 96.3C17.6063 96.3 15.6609 95.5078 14.0766 93.9235C12.4922 92.3391 11.7 90.3938 11.7 88.0875V19.9125C11.7 17.6063 12.4922 15.661 14.0766 14.0766C15.6609 12.4922 17.6063 11.7 19.9125 11.7H88.0875C90.3938 11.7 92.3391 12.4922 93.9235 14.0766C95.5078 15.661 96.3 17.6063 96.3 19.9125V33.75H88.0875V19.9125H19.9125V88.0875H88.0875V74.3625H96.3V88.0875C96.3 90.3938 95.5078 92.3391 93.9235 93.9235C92.3391 95.5078 90.3938 96.3 88.0875 96.3H19.9125ZM59.7375 76.6125C57.3019 76.6125 55.193 75.7521 53.4109 74.0313C51.6286 72.3105 50.7375 70.2319 50.7375 67.7956V40.317C50.7375 37.8806 51.6286 35.802 53.4109 34.0812C55.193 32.3604 57.3019 31.5 59.7375 31.5H92.025C94.4606 31.5 96.5696 32.3604 98.3518 34.0812C100.134 35.802 101.025 37.8806 101.025 40.317V67.7956C101.025 70.2319 100.134 72.3105 98.3518 74.0313C96.5696 75.7521 94.4606 76.6125 92.025 76.6125H59.7375ZM92.8125 68.4V39.7125H58.95V68.4H92.8125ZM73.4889 61.2C75.4963 61.2 77.1938 60.4891 78.5813 59.0672C79.9688 57.6453 80.6625 55.9187 80.6625 53.8875C80.6625 51.9188 79.95 50.2453 78.525 48.8672C77.1 47.4891 75.4125 46.8 73.4625 46.8C71.5125 46.8 69.825 47.4891 68.4 48.8672C66.975 50.2453 66.2625 51.9188 66.2625 53.8875C66.2625 55.9187 66.9651 57.6453 68.3702 59.0672C69.7754 60.4891 71.4816 61.2 73.4889 61.2Z" fill="#1C1B1F"/>
</g>
</svg>
