<svg width="68" height="68" viewBox="0 0 68 68" fill="none" xmlns="http://www.w3.org/2000/svg">
<mask id="mask0_2_676" style="mask-type:alpha" maskUnits="userSpaceOnUse" x="0" y="0" width="68" height="68">
<rect width="68" height="68" fill="#D9D9D9"/>
</mask>
<g mask="url(#mask0_2_676)">
<path d="M9.70416 57.7292C8.3477 57.7292 7.14679 57.2065 6.10143 56.1611C5.05603 55.1157 4.53333 53.9148 4.53333 52.5583V15.3708C4.53333 14.0144 5.05603 12.8135 6.10143 11.7681C7.14679 10.7227 8.3477 10.2 9.70416 10.2H58.2958C59.6523 10.2 60.8532 10.7227 61.8985 11.7681C62.944 12.8135 63.4667 14.0144 63.4667 15.3708V33.2208H9.70416V52.5583H39.0292V57.7292H9.70416ZM9.70416 21.8167H58.2958V15.3708H9.70416V21.8167ZM55.4625 62.1917V54.3292H47.6V49.5833H55.4625V41.7917H60.2083V49.5833H68V54.3292H60.2083V62.1917H55.4625Z" fill="#1C1B1F"/>
</g>
</svg>
