<svg width="108" height="108" viewBox="0 0 108 108" fill="none" xmlns="http://www.w3.org/2000/svg">
<mask id="mask0_2_664" style="mask-type:alpha" maskUnits="userSpaceOnUse" x="0" y="0" width="108" height="108">
<rect width="108" height="108" fill="#D9D9D9"/>
</mask>
<g mask="url(#mask0_2_664)">
<path d="M54 105.525C45.15 105.525 36.6562 102.937 28.5187 97.7625C20.3812 92.5875 14.0625 86.7 9.5625 80.1V94.6125H1.35V65.5875H30.375V73.8H15.075C18.9 79.8 24.4312 85.2187 31.6687 90.0562C38.9062 94.8937 46.35 97.3125 54 97.3125C59.925 97.3125 65.5149 96.1944 70.7697 93.9583C76.0244 91.7222 80.6182 88.6284 84.551 84.677C88.4837 80.7257 91.5937 76.1164 93.8812 70.8493C96.1687 65.5822 97.3125 59.9658 97.3125 54H105.525C105.525 61.2 104.175 67.9312 101.475 74.1937C98.775 80.4562 95.0813 85.9125 90.3938 90.5625C85.7062 95.2125 80.2383 98.8687 73.9898 101.531C67.7414 104.194 61.0781 105.525 54 105.525ZM50.175 87.075V80.8678C46.65 79.9059 43.7062 78.3562 41.3437 76.2187C38.9812 74.0812 37.05 71.175 35.55 67.5L42.4125 65.25C43.2375 68.175 44.775 70.4812 47.025 72.1687C49.275 73.8562 51.8625 74.7 54.7875 74.7C57.7125 74.7 60.1125 74.0074 61.9875 72.6222C63.8625 71.237 64.8 69.4171 64.8 67.1625C64.8 64.7706 63.825 62.7476 61.875 61.0935C59.925 59.4395 56.4375 57.5625 51.4125 55.4625C46.9875 53.6625 43.6312 51.6187 41.3437 49.3312C39.0562 47.0437 37.9125 43.9955 37.9125 40.1864C37.9125 36.6658 39.0562 33.7004 41.3437 31.2902C43.6312 28.88 46.65 27.4125 50.4 26.8875V21.0375H57.7125V26.8939C60.7125 27.1896 63.2812 28.1625 65.4187 29.8125C67.5562 31.4625 69.2625 33.7125 70.5375 36.5625L64.0125 39.6C62.9625 37.425 61.6588 35.7937 60.1014 34.7062C58.5441 33.6187 56.5853 33.075 54.225 33.075C51.3792 33.075 49.1678 33.7125 47.5907 34.9875C46.0136 36.2625 45.225 37.9856 45.225 40.157C45.225 42.4783 46.2562 44.3345 48.3187 45.7257C50.3812 47.1169 53.5329 48.7125 57.7738 50.5125C63.0579 52.6875 66.7687 55.0409 68.9062 57.5729C71.0437 60.1048 72.1125 63.3024 72.1125 67.1656C72.1125 69.1135 71.7937 70.875 71.1562 72.45C70.5187 74.025 69.5812 75.3937 68.3437 76.5562C67.1062 77.7187 65.5927 78.6828 63.803 79.4484C62.0133 80.214 59.9081 80.7688 57.4875 81.1125V87.075H50.175ZM2.475 54C2.475 46.875 3.82834 40.1891 6.53501 33.9422C9.24161 27.6954 12.9216 22.2435 17.5751 17.5865C22.2285 12.9296 27.6762 9.24673 33.9182 6.53803C40.1603 3.82933 46.8542 2.47498 54 2.47498C62.7 2.47498 71.1562 5.02498 79.3687 10.125C87.5812 15.225 93.975 21.15 98.55 27.9V13.275H106.763V42.3H77.7375V34.0875H93.0375C88.9875 28.0125 83.3438 22.5937 76.1063 17.8312C68.8688 13.0687 61.5 10.6875 54 10.6875C48.075 10.6875 42.4851 11.8055 37.2303 14.0417C31.9756 16.2778 27.3818 19.3715 23.449 23.3229C19.5163 27.2743 16.4062 31.8835 14.1187 37.1506C11.8312 42.4177 10.6875 48.0342 10.6875 54H2.475Z" fill="#1C1B1F"/>
</g>
</svg>
