<svg width="108" height="108" viewBox="0 0 108 108" fill="none" xmlns="http://www.w3.org/2000/svg">
<path fill-rule="evenodd" clip-rule="evenodd" d="M85.4393 62.9437C88.4268 58.2552 90.0094 52.8094 90 47.25C90 31.095 76.905 18 60.75 18C54.9743 18 49.59 19.674 45.0563 22.5607C42.039 22.73 39.0526 23.2572 36.1598 24.1312C39.3123 20.7701 43.1216 18.0921 47.3515 16.2634C51.5814 14.4347 56.1417 13.4941 60.75 13.5C79.389 13.5 94.5 28.611 94.5 47.25C94.5056 51.8582 93.5649 56.4185 91.7362 60.6483C89.9075 64.8782 87.2297 68.6875 83.8688 71.8402C84.726 68.9985 85.266 66.0195 85.4393 62.9437Z" fill="black"/>
<path fill-rule="evenodd" clip-rule="evenodd" d="M89.8493 64.3567C88.2201 67.1218 86.2065 69.6414 83.8688 71.8402C84.726 68.9985 85.2638 66.0195 85.437 62.9437C88.4253 58.2555 90.0087 52.8096 90 47.25C90 31.095 76.905 18 60.75 18C54.9743 18 49.59 19.674 45.0563 22.5607C42.039 22.73 39.0526 23.2572 36.1598 24.1312C38.3586 21.7936 40.8783 19.78 43.6433 18.1507C48.8262 15.0967 54.7342 13.4905 60.75 13.5C79.389 13.5 94.5 28.611 94.5 47.25C94.5106 53.2659 92.9043 59.1742 89.8493 64.3567Z" fill="black"/>
<path fill-rule="evenodd" clip-rule="evenodd" d="M81 60.75C81 79.389 65.889 94.5 47.25 94.5C28.611 94.5 13.5 79.389 13.5 60.75C13.5 42.111 28.611 27 47.25 27C65.889 27 81 42.111 81 60.75ZM45 49.5C43.8065 49.5 42.6619 49.9741 41.818 50.818C40.9741 51.6619 40.5 52.8065 40.5 54C40.5 55.1935 40.9741 56.3381 41.818 57.182C42.6619 58.0259 43.8065 58.5 45 58.5V49.5ZM49.5 45V42.75H45V45C42.6131 45 40.3239 45.9482 38.636 47.636C36.9482 49.3239 36 51.6131 36 54C36 56.3869 36.9482 58.6761 38.636 60.364C40.3239 62.0518 42.6131 63 45 63V72C43.0425 72 41.3753 70.7512 40.7543 69.0007C40.6621 68.7144 40.5135 68.4494 40.3171 68.2214C40.1208 67.9935 39.8807 67.8072 39.6112 67.6737C39.3416 67.5401 39.048 67.462 38.7477 67.4439C38.4474 67.4258 38.1465 67.4681 37.8628 67.5683C37.5791 67.6686 37.3185 67.8247 37.0962 68.0274C36.8739 68.2301 36.6945 68.4754 36.5687 68.7486C36.4428 69.0219 36.3731 69.3176 36.3635 69.6183C36.3539 69.919 36.4048 70.2185 36.513 70.4993C37.1336 72.2542 38.283 73.7736 39.803 74.8482C41.3229 75.9229 43.1385 76.5 45 76.5V78.75H49.5V76.5C51.8869 76.5 54.1761 75.5518 55.864 73.864C57.5518 72.1761 58.5 69.8869 58.5 67.5C58.5 65.1131 57.5518 62.8239 55.864 61.136C54.1761 59.4482 51.8869 58.5 49.5 58.5V49.5C51.4575 49.5 53.1247 50.7488 53.7457 52.4993C53.8379 52.7856 53.9865 53.0506 54.1829 53.2786C54.3792 53.5065 54.6193 53.6928 54.8888 53.8263C55.1584 53.9599 55.452 54.038 55.7523 54.0561C56.0526 54.0742 56.3535 54.0319 56.6372 53.9317C56.9209 53.8314 57.1815 53.6753 57.4038 53.4726C57.6261 53.2699 57.8055 53.0246 57.9313 52.7514C58.0572 52.4781 58.1269 52.1824 58.1365 51.8817C58.1461 51.581 58.0952 51.2815 57.987 51.0007C57.3664 49.2458 56.217 47.7264 54.697 46.6518C53.1771 45.5771 51.3615 45 49.5 45ZM49.5 63V72C50.6935 72 51.8381 71.5259 52.682 70.682C53.5259 69.8381 54 68.6935 54 67.5C54 66.3065 53.5259 65.1619 52.682 64.318C51.8381 63.4741 50.6935 63 49.5 63Z" fill="black"/>
</svg>
