<svg width="52" height="53" viewBox="0 0 52 53" fill="none" xmlns="http://www.w3.org/2000/svg">
<path d="M51 3H1V53H51V3Z" fill="#F3F3F3"/>
<g opacity="0.1">
<path opacity="0.1" d="M50.9961 49.8162V50.9961H49.8162" stroke="#20263C" stroke-miterlimit="10"/>
<path opacity="0.1" d="M47.5508 50.996H3.31259" stroke="#20263C" stroke-miterlimit="10" stroke-dasharray="5.77 5.77"/>
<path opacity="0.1" d="M2.17989 50.9961H1V49.8162" stroke="#20263C" stroke-miterlimit="10"/>
<path opacity="0.1" d="M1 47.5469V3.31262" stroke="#20263C" stroke-miterlimit="10" stroke-dasharray="5.77 5.77"/>
<path opacity="0.1" d="M1 2.17989V1H2.17989" stroke="#20263C" stroke-miterlimit="10"/>
<path opacity="0.1" d="M4.44922 1H48.6835" stroke="#20263C" stroke-miterlimit="10" stroke-dasharray="5.77 5.77"/>
<path opacity="0.1" d="M49.8162 1H50.9961V2.17989" stroke="#20263C" stroke-miterlimit="10"/>
<path opacity="0.1" d="M50.9961 4.44525V48.6834" stroke="#20263C" stroke-miterlimit="10" stroke-dasharray="5.77 5.77"/>
</g>
<path d="M19.8783 23.1279L14.9654 20.2716L10.0459 23.1279V28.8275L14.9654 31.6773L19.8783 28.8275V23.1279ZM18.8204 28.2145L14.9654 30.4447L11.1103 28.2145V23.7409L14.9654 21.5041L18.8204 23.7409V28.2145Z" fill="#414042"/>
<path d="M30.4974 23.1214L25.7747 20.2716L21.0582 23.1214V28.821L25.7747 31.6773L30.4974 28.821V23.1214Z" fill="#414042"/>
<path d="M36.5903 20.2716L31.6773 23.1279V28.8275L36.5903 31.6773L41.5097 28.8275V23.1279L36.5903 20.2716ZM40.4455 28.2145L36.5903 30.4447L32.7352 28.2145V23.7409L36.5903 21.5041L40.4455 23.7409V28.2145Z" fill="#414042"/>
<path d="M15.552 32.567V38.2666L20.478 41.1164L25.3845 38.2666V32.567L20.478 29.7108L15.552 32.567ZM24.3085 37.6732L20.478 39.8839L16.5891 37.6732V33.18L20.478 30.9433L24.3215 33.18L24.3085 37.6732Z" fill="#414042"/>
<path d="M26.1711 32.567V38.2666L31.084 41.1164L36.0035 38.2666V32.567L31.084 29.7108L26.1711 32.567ZM34.9392 37.6732L31.084 39.9035L27.2355 37.6732V33.18L31.084 30.9433L34.9392 33.18V37.6732Z" fill="#414042"/>
<path d="M25.3845 19.3883V13.6692L20.4845 10.8325L15.552 13.6692V19.3688L20.4845 22.2381L25.3845 19.3883ZM16.5905 14.3213L20.4845 12.065L24.3201 14.3213V18.7949L20.4845 21.0056L16.5905 18.7753V14.3213Z" fill="#414042"/>
<path d="M36.0035 19.4079V13.6887L31.084 10.8325L26.1711 13.6887V19.3883L31.084 22.2381L36.0035 19.4079ZM27.2355 14.3409L31.084 12.1041L34.9392 14.3409V18.8144L31.084 21.0447L27.2355 18.8144V14.3409Z" fill="#414042"/>
</svg>
