<svg width="68" height="68" viewBox="0 0 68 68" fill="none" xmlns="http://www.w3.org/2000/svg">
<path fill-rule="evenodd" clip-rule="evenodd" d="M14.1667 11.3333C11.9123 11.3333 9.75031 12.2289 8.15625 13.8229C6.56219 15.417 5.66666 17.579 5.66666 19.8333V22.6667H62.3333V19.8333C62.3333 17.579 61.4378 15.417 59.8437 13.8229C58.2497 12.2289 56.0877 11.3333 53.8333 11.3333H14.1667ZM62.3333 28.3333H5.66666V48.1667C5.66666 50.421 6.56219 52.583 8.15625 54.1771C9.75031 55.7711 11.9123 56.6667 14.1667 56.6667H53.8333C56.0877 56.6667 58.2497 55.7711 59.8437 54.1771C61.4378 52.583 62.3333 50.421 62.3333 48.1667V28.3333ZM22.6667 42.5C22.6667 41.7486 22.9652 41.0279 23.4965 40.4965C24.0279 39.9652 24.7485 39.6667 25.5 39.6667H38.0063L37.6635 39.3238C37.1318 38.7926 36.833 38.0719 36.8327 37.3203C36.8325 36.5687 37.1308 35.8477 37.6621 35.3161C38.1933 34.7844 38.9141 34.4856 39.6657 34.4854C40.4173 34.4851 41.1382 34.7834 41.6698 35.3147L46.8492 40.4968C47.3803 41.0282 47.6787 41.7487 47.6787 42.5C47.6787 43.2513 47.3803 43.9718 46.8492 44.5032L41.6698 49.6825C41.4085 49.9531 41.0958 50.169 40.7501 50.3175C40.4045 50.466 40.0327 50.5441 39.6565 50.5474C39.2802 50.5507 38.9072 50.479 38.559 50.3365C38.2107 50.194 37.8944 49.9837 37.6284 49.7176C37.3623 49.4516 37.152 49.1353 37.0095 48.787C36.867 48.4388 36.7953 48.0657 36.7986 47.6895C36.8019 47.3133 36.88 46.9415 37.0285 46.5959C37.177 46.2502 37.3929 45.9375 37.6635 45.6762L38.0063 45.3333H25.5C24.7485 45.3333 24.0279 45.0348 23.4965 44.5035C22.9652 43.9721 22.6667 43.2515 22.6667 42.5Z" fill="black"/>
</svg>
