<svg width="68" height="68" viewBox="0 0 68 68" fill="none" xmlns="http://www.w3.org/2000/svg">
<mask id="mask0_2_770" style="mask-type:alpha" maskUnits="userSpaceOnUse" x="0" y="0" width="68" height="68">
<rect width="68" height="68" fill="#D9D9D9"/>
</mask>
<g mask="url(#mask0_2_770)">
<path d="M31.6744 62.7568C31.0669 62.7568 30.4645 62.6451 29.8672 62.4219C29.2698 62.1986 28.7287 61.858 28.244 61.4002L6.68759 39.7729C6.20611 39.3386 5.845 38.8145 5.60426 38.2003C5.36357 37.5862 5.24323 36.9768 5.24323 36.372C5.24323 35.764 5.3592 35.1611 5.59116 34.5633C5.82316 33.9655 6.18864 33.4241 6.68759 32.939L32.9898 6.67065C33.4269 6.22459 33.9476 5.87233 34.5519 5.61388C35.1562 5.35544 35.7807 5.22621 36.4253 5.22621H58.0356C59.3627 5.22621 60.4988 5.69877 61.4439 6.64387C62.389 7.58893 62.8615 8.72503 62.8615 10.0522V31.6086C62.8615 32.2558 62.7265 32.8726 62.4565 33.459C62.1866 34.0455 61.8401 34.5559 61.4171 34.9901L35.0609 61.4002C34.5763 61.8344 34.0425 62.1691 33.4598 62.4042C32.8771 62.6392 32.2819 62.7568 31.6744 62.7568ZM31.5547 58.0726L58.0356 31.4662V10.0691H36.4475L10.0152 36.4622L31.5547 58.0726ZM50.613 21.0683C51.606 21.0683 52.4657 20.705 53.192 19.9784C53.9183 19.2517 54.2814 18.3964 54.2814 17.4124C54.2814 16.4283 53.919 15.5723 53.194 14.8444C52.469 14.1164 51.61 13.7524 50.617 13.7524C49.624 13.7524 48.7672 14.1149 48.0465 14.8399C47.3259 15.5649 46.9656 16.4199 46.9656 17.4049C46.9656 18.3899 47.3252 19.2467 48.0446 19.9753C48.7639 20.704 49.6201 21.0683 50.613 21.0683Z" fill="#1C1B1F"/>
</g>
</svg>
